<?xml version="1.0" encoding="UTF-8" standalone="no"?>
<svg
   xmlns:dc="http://purl.org/dc/elements/1.1/"
   xmlns:cc="http://creativecommons.org/ns#"
   xmlns:rdf="http://www.w3.org/1999/02/22-rdf-syntax-ns#"
   xmlns:svg="http://www.w3.org/2000/svg"
   xmlns="http://www.w3.org/2000/svg"
   xmlns:xlink="http://www.w3.org/1999/xlink"
   xmlns:sodipodi="http://sodipodi.sourceforge.net/DTD/sodipodi-0.dtd"
   xmlns:inkscape="http://www.inkscape.org/namespaces/inkscape"
   width="48"
   viewBox="0 0 13.546667 13.546667"
   height="48"
   id="svg2"
   version="1.1"
   inkscape:version="0.48.4 r9939"
   sodipodi:docname="copy.svg">
  <metadata
     id="metadata28">
    <rdf:RDF>
      <cc:Work
         rdf:about="">
        <dc:format>image/svg+xml</dc:format>
        <dc:type
           rdf:resource="http://purl.org/dc/dcmitype/StillImage" />
        <dc:title></dc:title>
      </cc:Work>
    </rdf:RDF>
  </metadata>
  <sodipodi:namedview
     pagecolor="#ffffff"
     bordercolor="#666666"
     borderopacity="1"
     objecttolerance="10"
     gridtolerance="10"
     guidetolerance="10"
     inkscape:pageopacity="0"
     inkscape:pageshadow="2"
     inkscape:window-width="1920"
     inkscape:window-height="1023"
     id="namedview26"
     showgrid="false"
     inkscape:zoom="15.980142"
     inkscape:cx="19.708911"
     inkscape:cy="30.297898"
     inkscape:window-x="0"
     inkscape:window-y="28"
     inkscape:window-maximized="1"
     inkscape:current-layer="svg2"
     showguides="true"
     inkscape:guide-bbox="true">
    <sodipodi:guide
       orientation="0,1"
       position="24.40529,37.171134"
       id="guide3203" />
    <sodipodi:guide
       orientation="0,1"
       position="22.778271,11.013669"
       id="guide3205" />
  </sodipodi:namedview>
  <defs
     id="defs4">
    <linearGradient
       id="linearGradient3858">
      <stop
         style="stop-color:#1ca7da;stop-opacity:0.94117647;"
         offset="0"
         id="stop3860" />
      <stop
         style="stop-color:#33b5e5;stop-opacity:1;"
         offset="1"
         id="stop3862" />
    </linearGradient>
    <linearGradient
       id="linearGradient4491">
      <stop
         style="stop-color:#f04000;stop-opacity:1;"
         offset="0"
         id="stop4493" />
      <stop
         style="stop-color:#f77600;stop-opacity:1;"
         offset="1"
         id="stop4495" />
    </linearGradient>
    <linearGradient
       id="linearGradient4460">
      <stop
         offset="0"
         style="stop-color:#0094bc;stop-opacity:1;"
         id="stop7" />
      <stop
         offset="1"
         style="stop-color:#70cfe6;stop-opacity:1;"
         id="stop9" />
    </linearGradient>
    <linearGradient
       gradientTransform="matrix(1.10528 0 0 1.10528 -134.28255 -295.77083)"
       xlink:href="#linearGradient4460"
       id="linearGradient3774"
       y1="279.096"
       y2="268.33"
       gradientUnits="userSpaceOnUse"
       x2="0" />
    <clipPath
       clipPathUnits="userSpaceOnUse"
       id="clipPath3836">
      <g
         transform="matrix(3.4059335,0,0,3.4059335,9.4739522,-18.973692)"
         style="fill:#00a1c5;fill-opacity:1;fill-rule:evenodd"
         id="g3838">
        <rect
           width="11.853"
           x="0.847"
           y="0.847"
           rx="1.5991021"
           height="11.853"
           style="fill:#00a1c5;fill-opacity:1"
           id="rect3840" />
      </g>
    </clipPath>
  </defs>
  <g
     style="fill-rule:evenodd;fill:#99cc00;fill-opacity:1"
     id="g12">
    <rect
       width="11.853"
       x="0.847"
       y="0.847"
       rx="1.5991021"
       height="11.853"
       style="fill:#99cc00;fill-opacity:1"
       id="rect16" />
  </g>
  <g
     transform="matrix(0.18452469,0,0,0.18452469,1.5831189,2.225067)"
     id="g3829"
     style="fill:#ffffff">
    <path
       inkscape:connector-curvature="0"
       d="M 35.021,8.568 35.568,7.749 36.105,6.941 37.314,5.128 C 37.462,4.905 37.402,4.605 37.181,4.456 36.956,4.307 36.656,4.367 36.507,4.591 L 35.212,6.535 34.667,7.352 34.114,8.18 C 32.362,7.501 30.409,7.12 28.346,7.12 26.285,7.12 24.332,7.501 22.58,8.18 L 22.03,7.352 21.485,6.535 20.188,4.59 C 20.04,4.367 19.739,4.307 19.515,4.455 19.293,4.603 19.233,4.904 19.381,5.127 l 1.208,1.813 0.539,0.808 0.547,0.819 c -4.115,1.916 -6.898,5.546 -6.898,9.701 h 27.142 c 0,-4.154 -2.783,-7.784 -6.898,-9.7 z m -12.489,5.823 c -0.805,0 -1.455,-0.651 -1.455,-1.454 0,-0.803 0.65,-1.453 1.455,-1.453 0.803,0 1.453,0.65 1.453,1.453 0,0.803 -0.65,1.454 -1.453,1.454 z m 11.631,0 c -0.803,0 -1.453,-0.651 -1.453,-1.454 0,-0.803 0.65,-1.453 1.453,-1.453 0.805,0 1.455,0.65 1.455,1.453 0,0.803 -0.65,1.454 -1.455,1.454 z"
       id="path3831"
       style="fill:#ffffff" />
    <path
       d="m -15.96875,15.34375 0,2.40625 0,1.96875 0,16.9375 c 0,1.587188 1.235089,2.905018 2.78125,3.0625 l 21.625,0 c 1.5385701,-0.164892 2.75,-1.480821 2.75,-3.0625 l 0,-16.9375 0,-1.96875 0,-2.40625 -0.21875,0 -26.71875,0 -0.21875,0 z"
       transform="translate(30.736451,4.8694516)"
       id="path3833"
       inkscape:connector-curvature="0"
       style="fill:#ffffff" />
    <path
       inkscape:connector-curvature="0"
       d="m 9.929,20.208 c -1.606,0 -2.908,1.301 -2.908,2.909 v 12.439 c 0,1.605 1.302,2.908 2.908,2.908 1.605,0 2.908,-1.303 2.908,-2.908 v -12.44 c 0,-1.607 -1.302,-2.908 -2.908,-2.908 z"
       id="path3835"
       style="fill:#ffffff" />
    <path
       inkscape:connector-curvature="0"
       d="m 46.767,20.208 c -1.607,0 -2.908,1.301 -2.908,2.909 v 12.439 c 0,1.605 1.301,2.908 2.908,2.908 1.605,0 2.906,-1.303 2.906,-2.908 v -12.44 c 0,-1.607 -1.301,-2.908 -2.906,-2.908 z"
       id="path3837"
       style="fill:#ffffff" />
  </g>
  <path
     style="fill:#99cc00;fill-opacity:1"
     d="m 5.4678508,10.249337 c 0,-0.3007327 0.039048,-0.3218818 0.5943299,-0.3218818 l 0.4363512,0 0,-0.1215677 c 0,-0.1085814 -0.012339,-0.1241097 -0.1155075,-0.1453541 C 5.9965663,9.5809547 5.4550555,9.17708 5.2378307,8.8064142 4.7249207,7.9311994 4.9902388,6.8152688 5.8463391,6.2470217 c 0.5723369,-0.3798961 1.4428633,-0.3798961 2.0152,0 C 8.7176399,6.8152688 8.9829576,7.9311994 8.470048,8.8064142 8.2495576,9.1826508 7.7186814,9.5784953 7.324854,9.6603196 7.2217272,9.6817523 7.2093465,9.6973502 7.2093465,9.8058875 l 0,0.1215677 0.4363512,0 c 0.5552803,0 0.5943298,0.021154 0.5943298,0.3218818 l 0,0.21123 -1.3860885,0 -1.3860885,0 z M 7.2307103,8.6868561 C 7.4001893,8.6098891 7.609042,8.4119459 7.6938858,8.2478766 7.7264985,8.1848106 7.7607804,8.0269782 7.7700706,7.897132 7.7985793,7.4986744 7.5987311,7.1649953 7.2271171,6.9905885 6.9892087,6.8789328 6.71867,6.8789328 6.4807616,6.9905885 6.2513461,7.0982575 6.1183282,7.2335251 6.0089679,7.4703598 c -0.074133,0.1605463 -0.085382,0.2280059 -0.07116,0.4267722 0.019389,0.2709904 0.082192,0.4121183 0.2645409,0.594467 0.1846148,0.1846152 0.376107,0.261452 0.6515908,0.261452 0.1494627,0 0.2824692,-0.023374 0.3767707,-0.066195 z M 6.6762536,8.2900132 C 6.455381,8.1974168 6.32697,7.9514221 6.3897145,7.7410948 c 0.017394,-0.058309 0.033003,-0.078027 0.034684,-0.043818 0.00475,0.09642 0.1344817,0.2043594 0.2456444,0.2043594 0.12334,0 0.2549808,-0.1310137 0.2549808,-0.2537656 0,-0.08743 -0.1074888,-0.2155859 -0.2132444,-0.2542457 -0.029318,-0.010716 0.024767,-0.020749 0.1201972,-0.022294 0.3105449,-0.00503 0.5046939,0.1915947 0.4965941,0.5029055 -0.00808,0.3106895 -0.3631488,0.5370054 -0.6523135,0.4157794 z"
     id="path3004"
     inkscape:connector-curvature="0"
     sodipodi:nodetypes="sscsssssscscsscccscssssssssccscsscsccc" />
</svg>
